<svg xmlns="http://www.w3.org/2000/svg" id="Layer_1" width="3.6" height="3.6" viewBox="0 0 3.6 3.6"><path fill="#fff" d="M1.4 1.8a.4.4 0 0 1 .4-.4.4.4 0 0 1 .4.4.4.4 0 0 1-.4.4.4.4 0 0 1-.4-.4z"/><path fill="#fff" d="M1.8 0a1.8 1.8 0 1 0 1.8 1.8A1.8 1.8 0 0 0 1.8 0zm1 2.5a.2.2 0 0 1-.3.3H1.1a.2.2 0 0 1-.2-.3V1.1a.2.2 0 0 1 .2-.3h1.4a.2.2 0 0 1 .3.3z"/><path fill="#fff" d="M2.5 1.2c0 .2 0 .2-.2.2s-.2 0-.2-.2 0-.2.2-.2.2 0 .2.2zm0 .5v.7H1v-.7h.2a.6.6 0 0 0 .5.7.6.6 0 0 0 .7-.4.7.7 0 0 0 0-.3c.1-.1.1-.1.1 0z"/></svg>