<svg xmlns="http://www.w3.org/2000/svg" width="98" height="11.1" viewBox="0 0 98 11.1"><path d="M0 4.3a4.2 4.2 0 0 1 .3-1.6A4.3 4.3 0 0 1 2.7.3 4.2 4.2 0 0 1 4.3 0 4.2 4.2 0 0 1 6 .3a4.3 4.3 0 0 1 2.3 2.4 4.2 4.2 0 0 1 .3 1.7A4.2 4.2 0 0 1 8.3 6 4.4 4.4 0 0 1 6 8.3a4.2 4.2 0 0 1-1.7.3 4.2 4.2 0 0 1-1.7-.3A4.4 4.4 0 0 1 .3 6 4.2 4.2 0 0 1 0 4.3zm7.8 0A3.5 3.5 0 0 0 7.5 3a3.6 3.6 0 0 0-.7-1.1 3.5 3.5 0 0 0-1.1-.8L4.3.8 3 1.1a3.5 3.5 0 0 0-1.1.8A3.6 3.6 0 0 0 1.1 3a3.6 3.6 0 0 0 0 2.8 3.6 3.6 0 0 0 .7 1.1 3.5 3.5 0 0 0 1.2.7l1.4.3 1.4-.3a3.5 3.5 0 0 0 1.1-.8 3.6 3.6 0 0 0 .7-1.1 3.5 3.5 0 0 0 .2-1.4zm-1.2.8a2.7 2.7 0 0 1-.3.8l-.5.6-.6.4h-.7l-1.1-.1-.8-.6a2.5 2.5 0 0 1-.5-.9 3.1 3.1 0 0 1-.2-1.1 3.3 3.3 0 0 1 .2-1.1 2.5 2.5 0 0 1 .5-.9l.8-.6 1.1-.2h.8l.7.3.5.6a2.2 2.2 0 0 1 .3.8h-1L5.7 3l-.3-.3-.4-.2H3.8l-.6.5-.3.6a2.3 2.3 0 0 0-.1.7 2.2 2.2 0 0 0 .1.7l.3.6.5.4.7.2a1.3 1.3 0 0 0 .9-.3 1.3 1.3 0 0 0 .5-.8zm9.2 1.6a1.9 1.9 0 0 1-.1.8l-.4.6-.6.4-.8.2h-.7l-.6-.3-.5-.6a2.2 2.2 0 0 1-.2-1V2a2.1 2.1 0 0 1 .1-.8l.4-.6.6-.4.8-.2.8.2.6.4.4.6a2.2 2.2 0 0 1 .1.8v.5h-1.1v-.4a1 1 0 0 0-.2-.6.7.7 0 0 0-.6-.3.6.6 0 0 0-.6.3 1.5 1.5 0 0 0-.1.7v4.4a1.1 1.1 0 0 0 .2.6.6.6 0 0 0 .6.3h.5l.2-.3a1.1 1.1 0 0 0 .1-.4v-.6h1.2zm2.1-.7v.8a.6.6 0 0 0 .2.4l.4.2a.5.5 0 0 0 .5-.2v-.3h1.2a2 2 0 0 1-.1.7l-.4.6-.6.4h-.8l-1-.2a1.6 1.6 0 0 1-.8-1.2 4.5 4.5 0 0 1 0-.7v-2a4.5 4.5 0 0 1 0-.7 1.6 1.6 0 0 1 .8-1.2l1-.2h.8l.6.4.4.6a2.2 2.2 0 0 1 .1.7V6zm0-1h1.2v-.6a.7.7 0 0 0-.2-.5l-.4-.2-.4.2a.7.7 0 0 0-.2.5zm4.6 1.9a.6.6 0 0 0 .2.4l.4.2a.5.5 0 0 0 .5-.2v-.4h1.2a2 2 0 0 1-.1.7l-.4.6-.6.4h-.8l-1-.2a1.6 1.6 0 0 1-.8-1.2 4.5 4.5 0 0 1 0-.7v-2a4.5 4.5 0 0 1 0-.7 1.6 1.6 0 0 1 .8-1.2l1-.2h.8l.6.4.4.6a2.3 2.3 0 0 1 .1.8h-1.1a.8.8 0 0 0-.2-.5l-.4-.2-.4.2a.7.7 0 0 0-.2.5zM25.6.1h1.2v1.2h-1.2zm0 2.5h1.2v6h-1.2zM27.8.1H29v6.8a.7.7 0 0 0 .1.5l.5.2v1.1h-.8l-.6-.3a1.2 1.2 0 0 1-.4-.5 2.5 2.5 0 0 1-.1-.9zm2.3 0h1.2v1.2h-1.2zm0 2.5h1.2v6h-1.2zM34.7 8l-.5.5-.7.2H33l-.4-.2-.3-.5a2.3 2.3 0 0 1-.1-.8 4.4 4.4 0 0 1 .1-.9 1.4 1.4 0 0 1 .3-.6l.6-.4h1.5v-.9a.9.9 0 0 0-.1-.5l-.6-.2-.4.2a.7.7 0 0 0-.3.5h-1.1a2 2 0 0 1 .5-1.4l.6-.4h1.5l.6.4.4.6a2.3 2.3 0 0 1 .1.8v4.2h-1.2zm0-2h-.3l-.7.2a.8.8 0 0 0-.3.7.9.9 0 0 0 .2.6l.5.2.5-.2a.9.9 0 0 0 .2-.6zM39.1.1h1.8l1 .2.7.5a1.8 1.8 0 0 1 .4.7 2.9 2.9 0 0 1 .1.8v.3a2.8 2.8 0 0 1-.1.6l-.2.4-.3.3-.4.3a1.3 1.3 0 0 1 .6.6 2.4 2.4 0 0 1 .3 1v.5a2.5 2.5 0 0 1-.5 1.7 2.3 2.3 0 0 1-1.7.6h-1.7zm1.2 3.5h.6a.9.9 0 0 0 .8-.3 1.6 1.6 0 0 0 .2-.9 1.4 1.4 0 0 0-.2-.9 1 1 0 0 0-.8-.3h-.5zm0 3.8h1.1l.3-.3a1.1 1.1 0 0 0 .1-.5V6a3.8 3.8 0 0 0 0-.6V5l-.3-.2h-1.2zM44.1.1h1.2v6.8a.7.7 0 0 0 .1.5l.5.2v1.1h-.8l-.6-.3a1.2 1.2 0 0 1-.4-.5A2.5 2.5 0 0 1 44 7zM47.5 6v.8a.6.6 0 0 0 .2.4l.4.2a.5.5 0 0 0 .5-.2v-.3h1.2a2 2 0 0 1-.1.7l-.4.6-.6.4h-.8l-1-.2a1.6 1.6 0 0 1-.8-1.2 4.5 4.5 0 0 1 0-.7v-2a4.5 4.5 0 0 1 0-.7 1.6 1.6 0 0 1 .8-1.2l1-.2h.8l.6.4.4.6a2.2 2.2 0 0 1 .1.7V6zm0-1h1.2v-.6a.7.7 0 0 0-.2-.5l-.4-.2-.4.2a.7.7 0 0 0-.2.5zm5.5-.8a.6.6 0 0 0-.2-.5l-.4-.2-.4.2a.6.6 0 0 0-.2.4.7.7 0 0 0 .1.3l.4.3.7.3a1.7 1.7 0 0 1 .9.7 2 2 0 0 1 .3 1 1.8 1.8 0 0 1-.1.7l-.4.6-.6.4h-1.4l-.6-.3-.4-.6a2 2 0 0 1-.2-.8h1.2a1.1 1.1 0 0 0 .2.5.5.5 0 0 0 .5.2l.5-.2a.6.6 0 0 0 .2-.5.7.7 0 0 0-.1-.4l-.5-.3-.6-.2a2 2 0 0 1-.9-.6 1.6 1.6 0 0 1-.3-1 1.8 1.8 0 0 1 .1-.7l.4-.6.6-.4h1.4l.5.4.4.6a1.9 1.9 0 0 1 .1.7zm1.7 3.4l2-4h-1.8V2.5h3.2v1l-2 4h2v1.1h-3.4zm4.9-5.1l.8 3.8.8-3.8h1.3l-1.7 7.2a2.2 2.2 0 0 1-.3.7l-.4.4-.5.2h-.9V9.9h.6l.2-.2.2-.5.2-.8-1.6-5.9zm3.4 0h1.2v.6l.5-.5.7-.2h.5l.4.3.3.5a1.9 1.9 0 0 1 .1.7v4.7h-1.2V4.4a.8.8 0 0 0-.2-.5l-.4-.2a.5.5 0 0 0-.5.2 1.2 1.2 0 0 0-.1.6v4.1H63zm6.9 1.7a.6.6 0 0 0-.2-.5l-.4-.2-.4.2a.6.6 0 0 0-.2.4.7.7 0 0 0 .1.3l.4.3.7.3a1.7 1.7 0 0 1 .9.7 2 2 0 0 1 .3 1 1.8 1.8 0 0 1-.1.7l-.4.6-.6.4h-1.4l-.6-.2-.4-.6a2 2 0 0 1-.2-.8h1.2a1.1 1.1 0 0 0 .2.5.5.5 0 0 0 .5.2l.5-.2a.6.6 0 0 0 .2-.5.7.7 0 0 0-.1-.4l-.5-.3-.6-.2a2 2 0 0 1-.9-.6 1.6 1.6 0 0 1-.3-1 1.8 1.8 0 0 1 .1-.7l.4-.6.6-.4H70l.5.4.4.6a1.9 1.9 0 0 1 .1.7zm2-4.1h1.2v5.1l1.5-2.7h1.2L74.4 5l1.8 3.6h-1.4L73.7 6l-.6.9v1.7h-1.2zm4.7 0h1.2v1.2h-1.2zm0 2.5h1.2v6h-1.2zm4.3 4.9l2.2-4.2a1.5 1.5 0 0 0 .2-.5 5.7 5.7 0 0 0 0-.6v-.7l-.2-.2h-.3l-.4.2a.6.6 0 0 0-.2.5v.7h-1.3v-.8a1.8 1.8 0 0 1 .1-.7l.4-.6.6-.4.7-.2.8.2.6.5a2 2 0 0 1 .3.7 3.2 3.2 0 0 1 .1.8v1.3l-.2.5-1.9 3.4h2.2v1.2h-3.7zm4.5-5.7a1.9 1.9 0 0 1 .1-.8l.5-.5.6-.4H88l.6.4.4.6a1.9 1.9 0 0 1 .1.8v5a1.9 1.9 0 0 1-.1.8l-.4.6-.6.4h-1.5l-.5-.5-.4-.6a1.9 1.9 0 0 1-.1-.8zm1.2 5a.6.6 0 0 0 .2.4l.4.2.4-.2a.6.6 0 0 0 .2-.4v-5a.6.6 0 0 0-.2-.4l-.4-.2-.4.2a.6.6 0 0 0-.2.4zm4.7-5.4l-1.2.9V1l1.2-.9h1.2v8.5h-1.2zm5.5-.2h-1.4v1h-1.1V.1H98v1.2l-2.1 7.3h-1.3z"/></svg>