<svg xmlns="http://www.w3.org/2000/svg"><symbol id="facebook" viewBox="0 0 3.6 3.6"><path d="M1.8 0a1.8 1.8 0 1 0 1.8 1.8A1.8 1.8 0 0 0 1.8 0zm.5 1h-.4v.2h.3v.3h-.3V3h-.4V1.6h-.3v-.3h.3a.9.9 0 0 1 0-.3l.2-.3h.7z"/></symbol><symbol id="instagram" viewBox="0 0 3.6 3.6"><path d="M1.4 1.8a.4.4 0 0 1 .4-.4.4.4 0 0 1 .4.4.4.4 0 0 1-.4.4.4.4 0 0 1-.4-.4z"/><path d="M1.8 0a1.8 1.8 0 1 0 1.8 1.8A1.8 1.8 0 0 0 1.8 0zm1 2.5a.2.2 0 0 1-.3.3H1.1a.2.2 0 0 1-.2-.3V1.1a.2.2 0 0 1 .2-.3h1.4a.2.2 0 0 1 .3.3z"/><path d="M2.5 1.2c0 .2 0 .2-.2.2s-.2 0-.2-.2 0-.2.2-.2.2 0 .2.2zm0 .5v.7H1v-.7h.2a.6.6 0 0 0 .5.7.6.6 0 0 0 .7-.4.7.7 0 0 0 0-.3c.1-.1.1-.1.1 0z"/></symbol><symbol id="tumblr" viewBox="0 0 3.6 3.6"><path d="M1.8 0a1.8 1.8 0 1 0 1.8 1.8A1.8 1.8 0 0 0 1.8 0zm.1 2.9h-.3v-.3a2.4 2.4 0 0 1 0-.3v-.7h-.3v-.4h.2V.9l.4-.3v.6h.3v.4h-.3v.9h.3v.4z"/></symbol><symbol id="skype" viewBox="0 0 3.6 3.6"><path d="M1.8 0a1.8 1.8 0 1 0 1.8 1.8A1.8 1.8 0 0 0 1.8 0zm1 2.2a.6.6 0 0 1 0 .3.6.6 0 0 1-.4.4h-1l-.5-.6a1.2 1.2 0 0 1-.1-.7.6.6 0 0 1 .1-.7.6.6 0 0 1 .7-.1h.6l.4.3a1 1 0 0 1 .2.6c0 .1 0 .2.1.2z"/><path fill-rule="evenodd" d="M2.3 2a.3.3 0 0 1-.1.3l-.4.2h-.5a.1.1 0 0 1 .1-.5h.2l-.3-.2a.3.3 0 0 1 .2-.5h.6z"/></symbol><symbol id="twitter" viewBox="0 0 3.6 3.6"><path fill-rule="evenodd" d="M1.8 0a1.8 1.8 0 1 0 1.8 1.8A1.8 1.8 0 0 0 1.8 0zm1.1 1.3a1.6 1.6 0 0 1-.4 1 1.4 1.4 0 0 1-.9.5 1.6 1.6 0 0 1-1-.2h.5l-.2-.5H1a.5.5 0 0 1-.3-.5h.1a.5.5 0 0 1 0-.7 1.5 1.5 0 0 0 .9.5h.1a.5.5 0 0 1 .9-.4h.4l-.2.3h.3z"/></symbol><symbol id="youtube" viewBox="0 0 3.6 3.6"><path d="M1.8 0a1.8 1.8 0 1 0 1.8 1.8A1.8 1.8 0 0 0 1.8 0zm1 2.2a.3.3 0 0 1-.3.3H1.1a.3.3 0 0 1-.3-.3v-.8a.3.3 0 0 1 .3-.3h1.4a.3.3 0 0 1 .3.3z"/><path d="M1.6 1.2l.7.6-.7.5V1.2z"/><path d="M2.3 1.8l-.7.5V1.2l.7.6z"/><path d="M2.3 1.8l-.7.5V1.2l.7.6z"/></symbol></svg>