<svg xmlns="http://www.w3.org/2000/svg" id="Layer_1" width="3.6" height="3.6" viewBox="0 0 3.6 3.6"><path d="M1.8 0C.8 0 0 .8 0 1.8s.8 1.8 1.8 1.8 1.8-.8 1.8-1.8S2.8 0 1.8 0zm1 2.5c0 .2-.1.3-.3.3H1.1c-.2 0-.2-.1-.2-.3V1.1c0-.2.1-.3.3-.3h1.4c.2 0 .3.1.3.3v1.4z"/><path d="M2.2 1.8c0 .2-.2.4-.4.4s-.4-.2-.4-.4.2-.4.4-.4.4.2.4.4zm.4-.5c0 .2 0 .2-.2.2s-.2 0-.2-.2 0-.2.2-.2.2 0 .2.2z"/><path d="M2.6 1.8v.7c0 .1 0 .1-.1.1H1.2c-.1 0-.1 0-.1-.1v-.7c0-.1 0-.1.1-.1s.1 0 .1.1c0 .3.2.6.5.7.2 0 .5-.2.6-.5v-.3c.2 0 .2 0 .2.1z"/></svg>