<svg xmlns="http://www.w3.org/2000/svg"><symbol id="copyright" viewBox="0 0 98 11.1"><path d="M0 4.3a4.2 4.2 0 0 1 .3-1.6A4.3 4.3 0 0 1 2.7.3 4.2 4.2 0 0 1 4.3 0 4.2 4.2 0 0 1 6 .3a4.3 4.3 0 0 1 2.3 2.4 4.2 4.2 0 0 1 .3 1.7A4.2 4.2 0 0 1 8.3 6 4.4 4.4 0 0 1 6 8.3a4.2 4.2 0 0 1-1.7.3 4.2 4.2 0 0 1-1.7-.3A4.4 4.4 0 0 1 .3 6 4.2 4.2 0 0 1 0 4.3zm7.8 0A3.5 3.5 0 0 0 7.5 3a3.6 3.6 0 0 0-.7-1.1 3.5 3.5 0 0 0-1.1-.8L4.3.8 3 1.1a3.5 3.5 0 0 0-1.1.8A3.6 3.6 0 0 0 1.1 3a3.6 3.6 0 0 0 0 2.8 3.6 3.6 0 0 0 .7 1.1 3.5 3.5 0 0 0 1.2.7l1.4.3 1.4-.3a3.5 3.5 0 0 0 1.1-.8 3.6 3.6 0 0 0 .7-1.1 3.5 3.5 0 0 0 .2-1.4zm-1.2.8a2.7 2.7 0 0 1-.3.8l-.5.6-.6.4h-.7l-1.1-.1-.8-.6a2.5 2.5 0 0 1-.5-.9 3.1 3.1 0 0 1-.2-1.1 3.3 3.3 0 0 1 .2-1.1 2.5 2.5 0 0 1 .5-.9l.8-.6 1.1-.2h.8l.7.3.5.6a2.2 2.2 0 0 1 .3.8h-1L5.7 3l-.3-.3-.4-.2H3.8l-.6.5-.3.6a2.3 2.3 0 0 0-.1.7 2.2 2.2 0 0 0 .1.7l.3.6.5.4.7.2a1.3 1.3 0 0 0 .9-.3 1.3 1.3 0 0 0 .5-.8zm9.2 1.6a1.9 1.9 0 0 1-.1.8l-.4.6-.6.4-.8.2h-.7l-.6-.3-.5-.6a2.2 2.2 0 0 1-.2-1V2a2.1 2.1 0 0 1 .1-.8l.4-.6.6-.4.8-.2.8.2.6.4.4.6a2.2 2.2 0 0 1 .1.8v.5h-1.1v-.4a1 1 0 0 0-.2-.6.7.7 0 0 0-.6-.3.6.6 0 0 0-.6.3 1.5 1.5 0 0 0-.1.7v4.4a1.1 1.1 0 0 0 .2.6.6.6 0 0 0 .6.3h.5l.2-.3a1.1 1.1 0 0 0 .1-.4v-.6h1.2zm2.1-.7v.8a.6.6 0 0 0 .2.4l.4.2a.5.5 0 0 0 .5-.2v-.3h1.2a2 2 0 0 1-.1.7l-.4.6-.6.4h-.8l-1-.2a1.6 1.6 0 0 1-.8-1.2 4.5 4.5 0 0 1 0-.7v-2a4.5 4.5 0 0 1 0-.7 1.6 1.6 0 0 1 .8-1.2l1-.2h.8l.6.4.4.6a2.2 2.2 0 0 1 .1.7V6zm0-1h1.2v-.6a.7.7 0 0 0-.2-.5l-.4-.2-.4.2a.7.7 0 0 0-.2.5zm4.6 1.9a.6.6 0 0 0 .2.4l.4.2a.5.5 0 0 0 .5-.2v-.4h1.2a2 2 0 0 1-.1.7l-.4.6-.6.4h-.8l-1-.2a1.6 1.6 0 0 1-.8-1.2 4.5 4.5 0 0 1 0-.7v-2a4.5 4.5 0 0 1 0-.7 1.6 1.6 0 0 1 .8-1.2l1-.2h.8l.6.4.4.6a2.3 2.3 0 0 1 .1.8h-1.1a.8.8 0 0 0-.2-.5l-.4-.2-.4.2a.7.7 0 0 0-.2.5zM25.6.1h1.2v1.2h-1.2zm0 2.5h1.2v6h-1.2zM27.8.1H29v6.8a.7.7 0 0 0 .1.5l.5.2v1.1h-.8l-.6-.3a1.2 1.2 0 0 1-.4-.5 2.5 2.5 0 0 1-.1-.9zm2.3 0h1.2v1.2h-1.2zm0 2.5h1.2v6h-1.2zM34.7 8l-.5.5-.7.2H33l-.4-.2-.3-.5a2.3 2.3 0 0 1-.1-.8 4.4 4.4 0 0 1 .1-.9 1.4 1.4 0 0 1 .3-.6l.6-.4h1.5v-.9a.9.9 0 0 0-.1-.5l-.6-.2-.4.2a.7.7 0 0 0-.3.5h-1.1a2 2 0 0 1 .5-1.4l.6-.4h1.5l.6.4.4.6a2.3 2.3 0 0 1 .1.8v4.2h-1.2zm0-2h-.3l-.7.2a.8.8 0 0 0-.3.7.9.9 0 0 0 .2.6l.5.2.5-.2a.9.9 0 0 0 .2-.6zM39.1.1h1.8l1 .2.7.5a1.8 1.8 0 0 1 .4.7 2.9 2.9 0 0 1 .1.8v.3a2.8 2.8 0 0 1-.1.6l-.2.4-.3.3-.4.3a1.3 1.3 0 0 1 .6.6 2.4 2.4 0 0 1 .3 1v.5a2.5 2.5 0 0 1-.5 1.7 2.3 2.3 0 0 1-1.7.6h-1.7zm1.2 3.5h.6a.9.9 0 0 0 .8-.3 1.6 1.6 0 0 0 .2-.9 1.4 1.4 0 0 0-.2-.9 1 1 0 0 0-.8-.3h-.5zm0 3.8h1.1l.3-.3a1.1 1.1 0 0 0 .1-.5V6a3.8 3.8 0 0 0 0-.6V5l-.3-.2h-1.2zM44.1.1h1.2v6.8a.7.7 0 0 0 .1.5l.5.2v1.1h-.8l-.6-.3a1.2 1.2 0 0 1-.4-.5A2.5 2.5 0 0 1 44 7zM47.5 6v.8a.6.6 0 0 0 .2.4l.4.2a.5.5 0 0 0 .5-.2v-.3h1.2a2 2 0 0 1-.1.7l-.4.6-.6.4h-.8l-1-.2a1.6 1.6 0 0 1-.8-1.2 4.5 4.5 0 0 1 0-.7v-2a4.5 4.5 0 0 1 0-.7 1.6 1.6 0 0 1 .8-1.2l1-.2h.8l.6.4.4.6a2.2 2.2 0 0 1 .1.7V6zm0-1h1.2v-.6a.7.7 0 0 0-.2-.5l-.4-.2-.4.2a.7.7 0 0 0-.2.5zm5.5-.8a.6.6 0 0 0-.2-.5l-.4-.2-.4.2a.6.6 0 0 0-.2.4.7.7 0 0 0 .1.3l.4.3.7.3a1.7 1.7 0 0 1 .9.7 2 2 0 0 1 .3 1 1.8 1.8 0 0 1-.1.7l-.4.6-.6.4h-1.4l-.6-.3-.4-.6a2 2 0 0 1-.2-.8h1.2a1.1 1.1 0 0 0 .2.5.5.5 0 0 0 .5.2l.5-.2a.6.6 0 0 0 .2-.5.7.7 0 0 0-.1-.4l-.5-.3-.6-.2a2 2 0 0 1-.9-.6 1.6 1.6 0 0 1-.3-1 1.8 1.8 0 0 1 .1-.7l.4-.6.6-.4h1.4l.5.4.4.6a1.9 1.9 0 0 1 .1.7zm1.7 3.4l2-4h-1.8V2.5h3.2v1l-2 4h2v1.1h-3.4zm4.9-5.1l.8 3.8.8-3.8h1.3l-1.7 7.2a2.2 2.2 0 0 1-.3.7l-.4.4-.5.2h-.9V9.9h.6l.2-.2.2-.5.2-.8-1.6-5.9zm3.4 0h1.2v.6l.5-.5.7-.2h.5l.4.3.3.5a1.9 1.9 0 0 1 .1.7v4.7h-1.2V4.4a.8.8 0 0 0-.2-.5l-.4-.2a.5.5 0 0 0-.5.2 1.2 1.2 0 0 0-.1.6v4.1H63zm6.9 1.7a.6.6 0 0 0-.2-.5l-.4-.2-.4.2a.6.6 0 0 0-.2.4.7.7 0 0 0 .1.3l.4.3.7.3a1.7 1.7 0 0 1 .9.7 2 2 0 0 1 .3 1 1.8 1.8 0 0 1-.1.7l-.4.6-.6.4h-1.4l-.6-.2-.4-.6a2 2 0 0 1-.2-.8h1.2a1.1 1.1 0 0 0 .2.5.5.5 0 0 0 .5.2l.5-.2a.6.6 0 0 0 .2-.5.7.7 0 0 0-.1-.4l-.5-.3-.6-.2a2 2 0 0 1-.9-.6 1.6 1.6 0 0 1-.3-1 1.8 1.8 0 0 1 .1-.7l.4-.6.6-.4H70l.5.4.4.6a1.9 1.9 0 0 1 .1.7zm2-4.1h1.2v5.1l1.5-2.7h1.2L74.4 5l1.8 3.6h-1.4L73.7 6l-.6.9v1.7h-1.2zm4.7 0h1.2v1.2h-1.2zm0 2.5h1.2v6h-1.2zm4.3 4.9l2.2-4.2a1.5 1.5 0 0 0 .2-.5 5.7 5.7 0 0 0 0-.6v-.7l-.2-.2h-.3l-.4.2a.6.6 0 0 0-.2.5v.7h-1.3v-.8a1.8 1.8 0 0 1 .1-.7l.4-.6.6-.4.7-.2.8.2.6.5a2 2 0 0 1 .3.7 3.2 3.2 0 0 1 .1.8v1.3l-.2.5-1.9 3.4h2.2v1.2h-3.7zm4.5-5.7a1.9 1.9 0 0 1 .1-.8l.5-.5.6-.4H88l.6.4.4.6a1.9 1.9 0 0 1 .1.8v5a1.9 1.9 0 0 1-.1.8l-.4.6-.6.4h-1.5l-.5-.5-.4-.6a1.9 1.9 0 0 1-.1-.8zm1.2 5a.6.6 0 0 0 .2.4l.4.2.4-.2a.6.6 0 0 0 .2-.4v-5a.6.6 0 0 0-.2-.4l-.4-.2-.4.2a.6.6 0 0 0-.2.4zm4.7-5.4l-1.2.9V1l1.2-.9h1.2v8.5h-1.2zm5.5-.2h-1.4v1h-1.1V.1H98v1.2l-2.1 7.3h-1.3z"/></symbol><symbol id="arrow-left" viewBox="0 0 252 252"><path d="M58.7 128.8v.3a18.5 18.5 0 0 0 6.4 13.7l118 101.8a18.5 18.5 0 0 0 24.2-28l-102.2-88.2 101.6-93.2a18.5 18.5 0 0 0-25-27.3l-117 107.3a18.5 18.5 0 0 0-6 13.6z"/></symbol><symbol id="arrow-right" viewBox="0 0 252 252"><path d="M213.7 128.8v.3a18.5 18.5 0 0 1-6.4 13.7l-118 101.8a18.5 18.5 0 0 1-24.2-28l102.2-88.2L65.7 35.2a18.5 18.5 0 0 1 25-27.3l117 107.3a18.5 18.5 0 0 1 6 13.6z"/></symbol><symbol id="copyright" viewBox="0 0 98 11.1"><path d="M0 4.3a4.2 4.2 0 0 1 .3-1.6A4.3 4.3 0 0 1 2.7.3 4.2 4.2 0 0 1 4.3 0 4.2 4.2 0 0 1 6 .3a4.3 4.3 0 0 1 2.3 2.4 4.2 4.2 0 0 1 .3 1.7A4.2 4.2 0 0 1 8.3 6 4.4 4.4 0 0 1 6 8.3a4.2 4.2 0 0 1-1.7.3 4.2 4.2 0 0 1-1.7-.3A4.4 4.4 0 0 1 .3 6 4.2 4.2 0 0 1 0 4.3zm7.8 0A3.5 3.5 0 0 0 7.5 3a3.6 3.6 0 0 0-.7-1.1 3.5 3.5 0 0 0-1.1-.8L4.3.8 3 1.1a3.5 3.5 0 0 0-1.1.8A3.6 3.6 0 0 0 1.1 3a3.6 3.6 0 0 0 0 2.8 3.6 3.6 0 0 0 .7 1.1 3.5 3.5 0 0 0 1.2.7l1.4.3 1.4-.3a3.5 3.5 0 0 0 1.1-.8 3.6 3.6 0 0 0 .7-1.1 3.5 3.5 0 0 0 .2-1.4zm-1.2.8a2.7 2.7 0 0 1-.3.8l-.5.6-.6.4h-.7l-1.1-.1-.8-.6a2.5 2.5 0 0 1-.5-.9 3.1 3.1 0 0 1-.2-1.1 3.3 3.3 0 0 1 .2-1.1 2.5 2.5 0 0 1 .5-.9l.8-.6 1.1-.2h.8l.7.3.5.6a2.2 2.2 0 0 1 .3.8h-1L5.7 3l-.3-.3-.4-.2H3.8l-.6.5-.3.6a2.3 2.3 0 0 0-.1.7 2.2 2.2 0 0 0 .1.7l.3.6.5.4.7.2a1.3 1.3 0 0 0 .9-.3 1.3 1.3 0 0 0 .5-.8zm9.2 1.6a1.9 1.9 0 0 1-.1.8l-.4.6-.6.4-.8.2h-.7l-.6-.3-.5-.6a2.2 2.2 0 0 1-.2-1V2a2.1 2.1 0 0 1 .1-.8l.4-.6.6-.4.8-.2.8.2.6.4.4.6a2.2 2.2 0 0 1 .1.8v.5h-1.1v-.4a1 1 0 0 0-.2-.6.7.7 0 0 0-.6-.3.6.6 0 0 0-.6.3 1.5 1.5 0 0 0-.1.7v4.4a1.1 1.1 0 0 0 .2.6.6.6 0 0 0 .6.3h.5l.2-.3a1.1 1.1 0 0 0 .1-.4v-.6h1.2zm2.1-.7v.8a.6.6 0 0 0 .2.4l.4.2a.5.5 0 0 0 .5-.2v-.3h1.2a2 2 0 0 1-.1.7l-.4.6-.6.4h-.8l-1-.2a1.6 1.6 0 0 1-.8-1.2 4.5 4.5 0 0 1 0-.7v-2a4.5 4.5 0 0 1 0-.7 1.6 1.6 0 0 1 .8-1.2l1-.2h.8l.6.4.4.6a2.2 2.2 0 0 1 .1.7V6zm0-1h1.2v-.6a.7.7 0 0 0-.2-.5l-.4-.2-.4.2a.7.7 0 0 0-.2.5zm4.6 1.9a.6.6 0 0 0 .2.4l.4.2a.5.5 0 0 0 .5-.2v-.4h1.2a2 2 0 0 1-.1.7l-.4.6-.6.4h-.8l-1-.2a1.6 1.6 0 0 1-.8-1.2 4.5 4.5 0 0 1 0-.7v-2a4.5 4.5 0 0 1 0-.7 1.6 1.6 0 0 1 .8-1.2l1-.2h.8l.6.4.4.6a2.3 2.3 0 0 1 .1.8h-1.1a.8.8 0 0 0-.2-.5l-.4-.2-.4.2a.7.7 0 0 0-.2.5zM25.6.1h1.2v1.2h-1.2zm0 2.5h1.2v6h-1.2zM27.8.1H29v6.8a.7.7 0 0 0 .1.5l.5.2v1.1h-.8l-.6-.3a1.2 1.2 0 0 1-.4-.5 2.5 2.5 0 0 1-.1-.9zm2.3 0h1.2v1.2h-1.2zm0 2.5h1.2v6h-1.2zM34.7 8l-.5.5-.7.2H33l-.4-.2-.3-.5a2.3 2.3 0 0 1-.1-.8 4.4 4.4 0 0 1 .1-.9 1.4 1.4 0 0 1 .3-.6l.6-.4h1.5v-.9a.9.9 0 0 0-.1-.5l-.6-.2-.4.2a.7.7 0 0 0-.3.5h-1.1a2 2 0 0 1 .5-1.4l.6-.4h1.5l.6.4.4.6a2.3 2.3 0 0 1 .1.8v4.2h-1.2zm0-2h-.3l-.7.2a.8.8 0 0 0-.3.7.9.9 0 0 0 .2.6l.5.2.5-.2a.9.9 0 0 0 .2-.6zM39.1.1h1.8l1 .2.7.5a1.8 1.8 0 0 1 .4.7 2.9 2.9 0 0 1 .1.8v.3a2.8 2.8 0 0 1-.1.6l-.2.4-.3.3-.4.3a1.3 1.3 0 0 1 .6.6 2.4 2.4 0 0 1 .3 1v.5a2.5 2.5 0 0 1-.5 1.7 2.3 2.3 0 0 1-1.7.6h-1.7zm1.2 3.5h.6a.9.9 0 0 0 .8-.3 1.6 1.6 0 0 0 .2-.9 1.4 1.4 0 0 0-.2-.9 1 1 0 0 0-.8-.3h-.5zm0 3.8h1.1l.3-.3a1.1 1.1 0 0 0 .1-.5V6a3.8 3.8 0 0 0 0-.6V5l-.3-.2h-1.2zM44.1.1h1.2v6.8a.7.7 0 0 0 .1.5l.5.2v1.1h-.8l-.6-.3a1.2 1.2 0 0 1-.4-.5A2.5 2.5 0 0 1 44 7zM47.5 6v.8a.6.6 0 0 0 .2.4l.4.2a.5.5 0 0 0 .5-.2v-.3h1.2a2 2 0 0 1-.1.7l-.4.6-.6.4h-.8l-1-.2a1.6 1.6 0 0 1-.8-1.2 4.5 4.5 0 0 1 0-.7v-2a4.5 4.5 0 0 1 0-.7 1.6 1.6 0 0 1 .8-1.2l1-.2h.8l.6.4.4.6a2.2 2.2 0 0 1 .1.7V6zm0-1h1.2v-.6a.7.7 0 0 0-.2-.5l-.4-.2-.4.2a.7.7 0 0 0-.2.5zm5.5-.8a.6.6 0 0 0-.2-.5l-.4-.2-.4.2a.6.6 0 0 0-.2.4.7.7 0 0 0 .1.3l.4.3.7.3a1.7 1.7 0 0 1 .9.7 2 2 0 0 1 .3 1 1.8 1.8 0 0 1-.1.7l-.4.6-.6.4h-1.4l-.6-.3-.4-.6a2 2 0 0 1-.2-.8h1.2a1.1 1.1 0 0 0 .2.5.5.5 0 0 0 .5.2l.5-.2a.6.6 0 0 0 .2-.5.7.7 0 0 0-.1-.4l-.5-.3-.6-.2a2 2 0 0 1-.9-.6 1.6 1.6 0 0 1-.3-1 1.8 1.8 0 0 1 .1-.7l.4-.6.6-.4h1.4l.5.4.4.6a1.9 1.9 0 0 1 .1.7zm1.7 3.4l2-4h-1.8V2.5h3.2v1l-2 4h2v1.1h-3.4zm4.9-5.1l.8 3.8.8-3.8h1.3l-1.7 7.2a2.2 2.2 0 0 1-.3.7l-.4.4-.5.2h-.9V9.9h.6l.2-.2.2-.5.2-.8-1.6-5.9zm3.4 0h1.2v.6l.5-.5.7-.2h.5l.4.3.3.5a1.9 1.9 0 0 1 .1.7v4.7h-1.2V4.4a.8.8 0 0 0-.2-.5l-.4-.2a.5.5 0 0 0-.5.2 1.2 1.2 0 0 0-.1.6v4.1H63zm6.9 1.7a.6.6 0 0 0-.2-.5l-.4-.2-.4.2a.6.6 0 0 0-.2.4.7.7 0 0 0 .1.3l.4.3.7.3a1.7 1.7 0 0 1 .9.7 2 2 0 0 1 .3 1 1.8 1.8 0 0 1-.1.7l-.4.6-.6.4h-1.4l-.6-.2-.4-.6a2 2 0 0 1-.2-.8h1.2a1.1 1.1 0 0 0 .2.5.5.5 0 0 0 .5.2l.5-.2a.6.6 0 0 0 .2-.5.7.7 0 0 0-.1-.4l-.5-.3-.6-.2a2 2 0 0 1-.9-.6 1.6 1.6 0 0 1-.3-1 1.8 1.8 0 0 1 .1-.7l.4-.6.6-.4H70l.5.4.4.6a1.9 1.9 0 0 1 .1.7zm2-4.1h1.2v5.1l1.5-2.7h1.2L74.4 5l1.8 3.6h-1.4L73.7 6l-.6.9v1.7h-1.2zm4.7 0h1.2v1.2h-1.2zm0 2.5h1.2v6h-1.2zm4.3 4.9l2.2-4.2a1.5 1.5 0 0 0 .2-.5 5.7 5.7 0 0 0 0-.6v-.7l-.2-.2h-.3l-.4.2a.6.6 0 0 0-.2.5v.7h-1.3v-.8a1.8 1.8 0 0 1 .1-.7l.4-.6.6-.4.7-.2.8.2.6.5a2 2 0 0 1 .3.7 3.2 3.2 0 0 1 .1.8v1.3l-.2.5-1.9 3.4h2.2v1.2h-3.7zm4.5-5.7a1.9 1.9 0 0 1 .1-.8l.5-.5.6-.4H88l.6.4.4.6a1.9 1.9 0 0 1 .1.8v5a1.9 1.9 0 0 1-.1.8l-.4.6-.6.4h-1.5l-.5-.5-.4-.6a1.9 1.9 0 0 1-.1-.8zm1.2 5a.6.6 0 0 0 .2.4l.4.2.4-.2a.6.6 0 0 0 .2-.4v-5a.6.6 0 0 0-.2-.4l-.4-.2-.4.2a.6.6 0 0 0-.2.4zm4.7-5.4l-1.2.9V1l1.2-.9h1.2v8.5h-1.2zm5.5-.2h-1.4v1h-1.1V.1H98v1.2l-2.1 7.3h-1.3z"/></symbol><symbol id="facebook" viewBox="0 0 3.6 3.6"><path d="M1.8 0C.8 0 0 .8 0 1.8s.8 1.8 1.8 1.8 1.8-.8 1.8-1.8S2.8 0 1.8 0zm.5 1h-.2C2 .9 2 1 2 1v.3h.3v.3h-.4V3h-.4V1.6h-.3v-.3h.2V.9c0-.1.1-.1.2-.2.1 0 .2-.1.3-.1s.2 0 .4.1V1z"/></symbol><symbol id="instagram" viewBox="0 0 3.6 3.6"><path d="M1.8 0C.8 0 0 .8 0 1.8s.8 1.8 1.8 1.8 1.8-.8 1.8-1.8S2.8 0 1.8 0zm1 2.5c0 .2-.1.3-.3.3H1.1c-.2 0-.2-.1-.2-.3V1.1c0-.2.1-.3.3-.3h1.4c.2 0 .3.1.3.3v1.4z"/><path d="M2.2 1.8c0 .2-.2.4-.4.4s-.4-.2-.4-.4.2-.4.4-.4.4.2.4.4zm.4-.5c0 .2 0 .2-.2.2s-.2 0-.2-.2 0-.2.2-.2.2 0 .2.2z"/><path d="M2.6 1.8v.7c0 .1 0 .1-.1.1H1.2c-.1 0-.1 0-.1-.1v-.7c0-.1 0-.1.1-.1s.1 0 .1.1c0 .3.2.6.5.7.2 0 .5-.2.6-.5v-.3c.2 0 .2 0 .2.1z"/></symbol><symbol id="tumblr" viewBox="0 0 3.6 3.6"><path d="M1.8 0C.8 0 0 .8 0 1.8s.8 1.8 1.8 1.8 1.8-.8 1.8-1.8S2.8 0 1.8 0zM2 3h-.2c-.1 0-.1-.1-.2-.1 0 0 0-.1-.1-.2V1.6h-.2v-.4h.2V.9L2 .6v.6h.3v.4H2v.9h.1s.1 0 .2-.1v.4c-.1.2-.2.2-.3.2z"/></symbol><symbol id="twitter" viewBox="0 0 3.6 3.6"><path fill-rule="evenodd" d="M1.8 0a1.8 1.8 0 1 0 1.8 1.8A1.8 1.8 0 0 0 1.8 0zm1.1 1.3a1.6 1.6 0 0 1-.4 1 1.4 1.4 0 0 1-.9.5 1.6 1.6 0 0 1-1-.2h.5l-.2-.5H1a.5.5 0 0 1-.3-.5h.1a.5.5 0 0 1 0-.7 1.5 1.5 0 0 0 .9.5h.1a.5.5 0 0 1 .9-.4h.4l-.2.3h.3z"/></symbol><symbol id="skype" viewBox="0 0 3.6 3.6"><path d="M1.8 0a1.8 1.8 0 1 0 1.8 1.8A1.8 1.8 0 0 0 1.8 0zm1 2.2a.6.6 0 0 1 0 .3.6.6 0 0 1-.4.4h-1l-.5-.6a1.2 1.2 0 0 1-.1-.7.6.6 0 0 1 .1-.7.6.6 0 0 1 .7-.1h.6l.4.3a1 1 0 0 1 .2.6c0 .1 0 .2.1.2z"/><path fill-rule="evenodd" d="M2.3 2a.3.3 0 0 1-.1.3l-.4.2h-.5a.1.1 0 0 1 .1-.5h.2l-.3-.2a.3.3 0 0 1 .2-.5h.6z"/></symbol><symbol id="youtube" viewBox="0 0 3.6 3.6"><path d="M1.8 0a1.8 1.8 0 1 0 1.8 1.8A1.8 1.8 0 0 0 1.8 0zm1 2.2a.3.3 0 0 1-.3.3H1.1a.3.3 0 0 1-.3-.3v-.8a.3.3 0 0 1 .3-.3h1.4a.3.3 0 0 1 .3.3z"/><path d="M1.6 1.2l.7.6-.7.5V1.2z"/><path d="M2.3 1.8l-.7.5V1.2l.7.6z"/><path d="M2.3 1.8l-.7.5V1.2l.7.6z"/></symbol></svg>