<?xml version="1.0" encoding="utf-8"?>
<!-- Generator: Adobe Illustrator 21.1.0, SVG Export Plug-In . SVG Version: 6.00 Build 0)  -->
<svg version="1.1" id="Layer_1" xmlns="http://www.w3.org/2000/svg" xmlns:xlink="http://www.w3.org/1999/xlink" x="0px" y="0px"
	 viewBox="0 0 551 263" style="enable-background:new 0 0 551 263;" xml:space="preserve">
<style type="text/css">
	.st0{fill:none;stroke:#000000;stroke-width:34.6476;stroke-linecap:round;stroke-linejoin:round;enable-background:new    ;}
	.st1{fill:none;stroke:#000000;stroke-width:34.2879;stroke-linecap:round;stroke-linejoin:round;enable-background:new    ;}
	
		.st2{opacity:0.86;fill:none;stroke:#000000;stroke-width:34.6476;stroke-linecap:round;stroke-linejoin:round;enable-background:new    ;}
</style>
<g id="Line1">
	<g>
		<path d="M274.8,10.3c0.3,0,0.7,0,1,0c14.3,1,26.6,6.4,36.4,15.9l4,3.9l1-5.5c1.2-6.7,7.1-11.5,13.9-11.5c7.8,0,14.1,6.3,14.1,14.1
			v135.5c0,7.8-6.3,14.1-14.1,14.1c-7.8,0-14.1-6.3-14.1-14.1c-0.2-50.9-6-86.8-17.4-106.7c-1.7-3-3.5-5.6-5.4-7.7l-5.3-6v8V160
			c0,41.2-20.2,74.4-54,88.8c-10,4.3-20.6,6.5-30.6,6.5c-13.9,0-25.9-4.2-34-12c-10.5-10.1-13.1-24.8-7.2-40.5l0.1-0.2l15.2-37.9
			l0.5-1.2l-0.5-1.2l-24.7-54.8l-3.1-7l-2.4,7.2c-4.5,13.4-11.4,33.6-22.1,48.2c-7.4,10.1-18.7,16.8-32.6,19.6
			c-4.2,0.8-8.6,1.3-13.1,1.3c-7.3,0-14.4-1.2-20.6-3.4C29.6,162.6,11,136,8.8,100.5c-1.7-27.1,6-51.3,21.8-68.1
			c12-12.7,27.5-20,42.7-20c23.5,0,39.2,12.7,46,21.8L95,49.3c-3.2-3.3-10.3-8.7-21.7-8.7c-8.6,0-17.1,5.7-22.1,11.1
			C40.8,62.8,35.8,79.5,37,98.7c1.5,24.4,12.7,41,32.4,48.1c3.1,1.1,7.1,1.7,11.1,1.7c10,0,18.5-3.5,22.8-9.3
			c8.1-11.1,14-28.4,18.7-42.4c2.7-8,5-14.9,7.6-20.5c0.9-1.9,2.8-6,5.9-9.5c3.7-4.1,8.1-6.4,13-6.8c0.4,0,0.9,0,1.3,0
			c11.3,0,17.7,10.1,21.4,17.7c0.1,0.2,0.2,0.3,0.2,0.5L190,119l2.8,6.2l2.7-6.3l21.2-49.7c2.2-5.2,7.3-8.6,13-8.6
			c1.9,0,3.7,0.4,5.4,1.1c7.1,3,10.6,11.2,7.7,18.3l-53.2,132.7l0,0l0,0c-0.6,1.7-2.6,7,0.4,9.9c2.6,2.5,8.1,4.1,14.4,4.1
			c6.2,0,12.9-1.5,19.4-4.2c33.2-14.1,36.8-48.6,36.8-62.8V24.4c0-3.9,1.6-7.7,4.5-10.3C267.8,11.6,271.2,10.3,274.8,10.3
			 M274.8,7.3c-4.3,0-8.5,1.6-11.7,4.6c-3.5,3.2-5.5,7.8-5.5,12.5v135.5c0,13.6-3.4,46.6-35,60c-6.9,2.9-13.2,4-18.3,4
			c-6.2,0-10.7-1.6-12.4-3.2c-1.3-1.3-0.6-4.3,0.3-6.7l53.2-132.7c3.5-8.7-0.7-18.6-9.4-22.2c-2.1-0.9-4.4-1.3-6.6-1.3
			c-6.7,0-13,3.9-15.8,10.4l-21.2,49.7L174.3,77c-0.1-0.2-0.2-0.4-0.3-0.6c-2.4-4.9-9.6-19.3-24.1-19.3c-0.5,0-1,0-1.5,0.1
			c-13.5,0.9-19.5,13.8-21.5,18c-2.7,5.7-5,12.7-7.8,20.8c-4.6,13.7-10.4,30.8-18.3,41.5c-4.2,5.7-12.7,8.1-20.4,8.1
			c-3.7,0-7.3-0.6-10.1-1.5C52,137.3,41.5,121.6,40,98.5c-1.2-18.4,3.6-34.3,13.4-44.7c7.1-7.5,14.9-10.2,19.9-10.2
			c14.2,0,20.6,8.8,21.3,9.8c-0.1-0.2-0.2-0.3-0.2-0.3L123.5,35c-6-9.5-23.2-25.7-50.2-25.7c-16,0-32.4,7.7-44.9,21
			C12.1,47.7,4,72.7,5.8,100.7c2.3,36.8,21.6,64.3,53.1,75.6c6.6,2.3,14.1,3.5,21.6,3.5c4.6,0,9.2-0.4,13.6-1.3
			c14.6-2.9,26.5-10,34.4-20.7c10.6-14.5,17.2-33.4,22.5-49l24.7,54.8l-15.2,37.9c0,0.1-0.1,0.2-0.1,0.3
			c-6.4,16.8-3.5,32.7,7.9,43.7c8.8,8.5,21.7,12.8,36,12.8l0,0c10.2,0,21.1-2.2,31.8-6.7c35-14.9,55.9-49.1,55.9-91.6V50.2
			c1.7,2,3.4,4.3,5,7.3c11.1,19.5,16.8,54.9,17,105.3c0,9.4,7.7,17.1,17.1,17.1l0,0l0,0c9.5,0,17.1-7.7,17.1-17.1V27.2
			c0-9.5-7.7-17.1-17.1-17.1c-8.4,0-15.4,6-16.9,14C303.9,14,291.1,8.4,276,7.3C275.6,7.3,275.2,7.3,274.8,7.3L274.8,7.3z
			 M94.6,53.5L94.6,53.5L94.6,53.5L94.6,53.5z"/>
	</g>
</g>
<g id="Line2">
	<g>
		<path d="M479.1,57.7c11.3,0,21.3,2.7,29.8,8.2l1.8,1.1l1.7-1.3c2.5-1.9,5.5-2.9,8.6-2.9c0.4,0,0.9,0,1.3,0.1
			c7.8,0.7,13.5,7.6,12.8,15.4c-1,11.1-1.6,21.8-1.5,31.9v0.1v0.1c0.9,24.6,2.9,39.5,6,44.3l0,0l0,0c4.3,6.4,2.6,15.1-3.7,19.5
			c-2.4,1.6-5.2,2.5-8,2.5c-3,0-6-1-8.4-2.7l-2.3-1.7l-1.8,2.3c-7,8.9-15.6,15.9-25.7,20.6c-9.9,4.7-20.8,7-32.2,7
			c-23.9,0-48.3-10.6-66.7-29c-0.4-0.4-0.7-0.8-1.1-1.2L349,121c-4.5-5.6-4-13.7,1-18.8l35.8-36.1c2.7-2.7,6.2-4.2,10-4.2
			s7.3,1.5,10,4.1c5.5,5.5,5.6,14.5,0.1,20l-25.1,25.3l-1.9,1.9l1.7,2.1l30.6,38.3l0.1,0.1l0.1,0.1c8.9,8.7,19.5,15,30.6,18
			l14.7,4.1l-12.1-9.3c-2.3-1.8-4.5-3.8-6.6-6c-11.3-12.2-17-29.4-15.7-47.2c1.9-24.3,13.8-37.6,23.4-44.6
			C459.3,58.7,473.6,57.7,479.1,57.7 M474.8,148.6c8.6,0,15.2-2.4,20.1-7.4c3.2-3.2,8.8-10.8,10-25.2v-0.1v-0.1
			c0-3.3-0.1-6.8-0.4-10.2v-0.3l-0.1-0.3c-0.5-1.7-1.9-6-5.1-10c-4.7-6-11.3-8.9-20.2-8.9c-4.2,0-11.2,1.5-16.9,5.6
			c-7,5.1-10.9,12.9-11.7,23.8c-0.8,9.8,2.3,19.4,8.2,25.8C461.7,144.5,467.1,148.6,474.8,148.6 M479.1,54.7
			c-5.8,0-20.8,1.1-35.3,11.6c-10.1,7.3-22.6,21.4-24.6,46.8c-1.4,18.6,4.6,36.6,16.5,49.5c2.2,2.3,4.5,4.5,7,6.4
			c-10.4-2.9-20.6-8.7-29.3-17.3l-30.6-38.3l25-25.4c6.7-6.7,6.6-17.6-0.1-24.2c-3.3-3.3-7.7-5-12.1-5s-8.8,1.7-12.2,5.1L347.6,100
			c-6.1,6.2-6.7,16-1.2,22.8l40.7,51c0.4,0.5,0.8,1,1.3,1.4c19.5,19.5,44.6,29.9,68.9,29.9c11.6,0,23-2.4,33.5-7.3
			c10.6-5,19.6-12.3,26.8-21.5c3,2.2,6.5,3.3,10.2,3.3c3.4,0,6.8-1,9.7-3c7.7-5.3,9.7-15.9,4.5-23.6c-1.6-2.4-4.3-11.2-5.5-42.8
			c0-9.2,0.4-19.7,1.5-31.6c0.9-9.4-6-17.8-15.5-18.7c-0.5-0.1-1.1-0.1-1.6-0.1c-3.9,0-7.5,1.3-10.4,3.5
			C502.4,58.1,492,54.7,479.1,54.7L479.1,54.7z M474.8,145.6c-6.6,0-11.3-3.5-14-6.4c-5.4-5.8-8.1-14.6-7.4-23.5
			c0.8-10,4.2-17.1,10.5-21.6c5.2-3.7,11.4-5.1,15.2-5.1c8,0,13.7,2.5,17.8,7.8c2.9,3.6,4.2,7.5,4.6,9c0.3,3.4,0.4,6.8,0.4,10
			c-0.7,8.2-3.4,17.5-9.2,23.4C488.5,143.4,482.6,145.6,474.8,145.6L474.8,145.6z"/>
	</g>
</g>
<path id="L" class="st0" d="M274.4,163.8V25.4"/>
<path id="C" class="st1" d="M108.6,45.1c0,0-11-17.6-35.7-17.6c-23.3,0-53.4,25.2-50.4,73.1c2.1,33.4,19.7,52.6,41.7,60.5
	c14.6,5.2,38.6,3.1,50.1-12.5"/>
<path id="Y" class="st1" d="M155.5,79.9l37.5,82.3l36.6-85.6l-53.3,132.9"/>
<path id="K1" class="st0" d="M330.7,27.6v135.5"/>
<path id="K2" class="st0" d="M395.8,77L360,113.1l40.7,51"/>
<path id="A1_1_" class="st0" d="M518.4,104.7c0,0-5.9-31.1-39.4-31.1c-12.9,0-40.1,8-42.8,42.5c-2,25.8,15.1,48.4,38.5,48.4
	c35.3,0,44.7-31.5,44.5-52.2c0.8,21.9,2.5,43.1,8.4,51.9c-6-8.4-11.1-39.6-6.8-85.5"/>
<path id="A2" class="st2" d="M519.3,111.2c0.8,21.9,2.5,43.1,8.4,51.9c-6-8.4-11.1-39.6-6.8-85.5"/>
</svg>
